<svg width="7" height="5" viewBox="0 0 7 5" fill="none" xmlns="http://www.w3.org/2000/svg">
<path d="M5.72727 1.25L4.45455 2.5H5.40909C5.40909 3.53437 4.55318 4.375 3.5 4.375C3.17864 4.375 2.87318 4.29687 2.60909 4.15625L2.14455 4.6125C2.53591 4.85625 3.00045 5 3.5 5C4.90636 5 6.04545 3.88125 6.04545 2.5H7L5.72727 1.25ZM1.59091 2.5C1.59091 1.46563 2.44682 0.625 3.5 0.625C3.82136 0.625 4.12682 0.703125 4.39091 0.84375L4.85545 0.3875C4.46409 0.14375 3.99955 0 3.5 0C2.09364 0 0.954545 1.11875 0.954545 2.5H0L1.27273 3.75L2.54545 2.5H1.59091Z" fill="#9694EA"/>
</svg>
