<svg width="15" height="15" viewBox="0 0 15 15" fill="none" xmlns="http://www.w3.org/2000/svg">
<path d="M8.94298 15H6.05702C5.86462 15 5.69788 14.9375 5.55679 14.8125C5.4157 14.6875 5.33232 14.5312 5.30667 14.3438L5.07579 12.6C4.90905 12.5375 4.75205 12.4625 4.6048 12.375C4.45704 12.2875 4.31262 12.1938 4.17153 12.0938L2.49767 12.7687C2.3181 12.8313 2.13853 12.8375 1.95896 12.7875C1.77938 12.7375 1.63829 12.6313 1.53568 12.4688L0.11194 10.05C0.00932835 9.8875 -0.0227379 9.7125 0.0157416 9.525C0.0542211 9.3375 0.15042 9.1875 0.304338 9.075L1.74732 8.00625C1.73449 7.91875 1.72808 7.83425 1.72808 7.75275V7.2465C1.72808 7.1655 1.73449 7.08125 1.74732 6.99375L0.304338 5.925C0.15042 5.8125 0.0542211 5.6625 0.0157416 5.475C-0.0227379 5.2875 0.00932835 5.1125 0.11194 4.95L1.53568 2.53125C1.62547 2.35625 1.76322 2.24675 1.94895 2.20275C2.13519 2.15925 2.3181 2.16875 2.49767 2.23125L4.17153 2.90625C4.31262 2.80625 4.46012 2.7125 4.61404 2.625C4.76796 2.5375 4.92188 2.4625 5.07579 2.4L5.30667 0.65625C5.33232 0.46875 5.4157 0.3125 5.55679 0.1875C5.69788 0.0625 5.86462 0 6.05702 0H8.94298C9.13538 0 9.30212 0.0625 9.44321 0.1875C9.5843 0.3125 9.66768 0.46875 9.69333 0.65625L9.92421 2.4C10.091 2.4625 10.2482 2.5375 10.396 2.625C10.5432 2.7125 10.6874 2.80625 10.8285 2.90625L12.5023 2.23125C12.6819 2.16875 12.8615 2.1625 13.041 2.2125C13.2206 2.2625 13.3617 2.36875 13.4643 2.53125L14.8881 4.95C14.9907 5.1125 15.0227 5.2875 14.9843 5.475C14.9458 5.6625 14.8496 5.8125 14.6957 5.925L13.2527 6.99375C13.2655 7.08125 13.2719 7.1655 13.2719 7.2465V7.75275C13.2719 7.83425 13.2591 7.91875 13.2334 8.00625L14.6764 9.075C14.8303 9.1875 14.9265 9.3375 14.965 9.525C15.0035 9.7125 14.9714 9.8875 14.8688 10.05L13.4451 12.45C13.3425 12.6125 13.1983 12.722 13.0126 12.7785C12.8263 12.8345 12.6434 12.8313 12.4639 12.7687L10.8285 12.0938C10.6874 12.1938 10.5399 12.2875 10.386 12.375C10.232 12.4625 10.0781 12.5375 9.92421 12.6L9.69333 14.3438C9.66768 14.5312 9.5843 14.6875 9.44321 14.8125C9.30212 14.9375 9.13538 15 8.94298 15ZM7.53848 10.125C8.28242 10.125 8.91733 9.86875 9.44321 9.35625C9.9691 8.84375 10.232 8.225 10.232 7.5C10.232 6.775 9.9691 6.15625 9.44321 5.64375C8.91733 5.13125 8.28242 4.875 7.53848 4.875C6.78172 4.875 6.14347 5.13125 5.62374 5.64375C5.10452 6.15625 4.84492 6.775 4.84492 7.5C4.84492 8.225 5.10452 8.84375 5.62374 9.35625C6.14347 9.86875 6.78172 10.125 7.53848 10.125Z" fill="white"/>
</svg>
