<svg width="15" height="15" viewBox="0 0 15 15" fill="none" xmlns="http://www.w3.org/2000/svg">
<path d="M13.3333 1.5H12.5V0H10.8333V1.5H4.16667V0H2.5V1.5H1.66667C0.741667 1.5 0.00833333 2.175 0.00833333 3L0 13.5C0 14.325 0.741667 15 1.66667 15H13.3333C14.25 15 15 14.325 15 13.5V3C15 2.175 14.25 1.5 13.3333 1.5ZM13.3333 13.5H1.66667V6H13.3333V13.5ZM5 9H3.33333V7.5H5V9ZM8.33333 9H6.66667V7.5H8.33333V9ZM11.6667 9H10V7.5H11.6667V9ZM5 12H3.33333V10.5H5V12ZM8.33333 12H6.66667V10.5H8.33333V12ZM11.6667 12H10V10.5H11.6667V12Z" fill="white"/>
</svg>
